<?xml version="1.0" standalone="no"?>
<!DOCTYPE svg PUBLIC "-//W3C//DTD SVG 20010904//EN"
 "http://www.w3.org/TR/2001/REC-SVG-20010904/DTD/svg10.dtd">
<svg version="1.0" xmlns="http://www.w3.org/2000/svg"
 width="956.000000pt" height="956.000000pt" viewBox="0 0 956.000000 956.000000"
 preserveAspectRatio="xMidYMid meet">
<metadata>
Created by potrace 1.14, written by Peter Selinger 2001-2017
</metadata>
<g transform="translate(0.000000,956.000000) scale(0.100000,-0.100000)"
fill="#000000" stroke="none">
<path d="M4760 8084 c-120 -115 -356 -352 -394 -394 -115 -127 -321 -383 -392
-485 -11 -16 -55 -79 -97 -140 -42 -60 -81 -115 -87 -122 -5 -7 -10 -15 -10
-18 0 -3 -18 -33 -40 -65 -22 -32 -40 -64 -40 -69 0 -6 -4 -11 -10 -11 -5 0
-10 -4 -10 -10 0 -5 -18 -39 -40 -75 -22 -36 -40 -69 -40 -74 0 -5 -7 -14 -15
-21 -8 -7 -12 -16 -9 -21 3 -5 1 -9 -3 -9 -5 0 -16 -15 -24 -32 -9 -18 -45
-91 -81 -163 -36 -71 -76 -152 -88 -180 -12 -27 -31 -69 -41 -92 -11 -23 -19
-44 -19 -47 0 -3 -11 -30 -25 -60 -14 -30 -25 -57 -25 -60 0 -2 -5 -17 -12
-33 -6 -15 -12 -32 -14 -38 -2 -5 -20 -59 -42 -120 -21 -60 -54 -164 -73 -231
l-34 -121 -60 25 c-33 13 -73 30 -90 37 -52 23 -187 71 -290 104 -55 18 -109
36 -120 41 -17 7 -122 35 -375 101 -25 7 -52 13 -60 15 -8 1 -89 18 -180 37
-90 20 -168 33 -172 31 -4 -3 -8 -2 -8 3 0 4 -10 8 -22 9 -21 1 -52 6 -128 19
-14 3 -38 7 -55 9 -16 2 -50 8 -75 12 -25 4 -52 8 -60 9 -68 8 -212 27 -240
31 -19 3 -53 7 -75 9 -22 2 -71 7 -110 10 -38 4 -81 8 -95 10 -14 2 -70 7
-125 11 -55 4 -118 8 -140 10 -22 2 -162 6 -312 10 l-272 7 4 -144 c5 -177 11
-256 30 -398 3 -21 7 -56 10 -77 6 -57 14 -116 20 -144 2 -13 7 -40 10 -60 3
-20 8 -47 10 -60 3 -14 7 -38 10 -55 2 -16 11 -64 20 -105 9 -41 19 -88 21
-105 3 -16 7 -37 10 -45 3 -8 8 -26 10 -40 6 -28 42 -165 74 -280 11 -41 22
-82 24 -90 6 -20 85 -261 93 -280 3 -8 7 -18 8 -22 2 -5 4 -10 5 -13 1 -3 3
-8 5 -12 1 -5 5 -17 10 -28 90 -224 120 -296 160 -380 27 -55 49 -104 51 -110
1 -5 27 -56 58 -112 31 -56 56 -107 56 -113 0 -5 4 -10 9 -10 5 0 12 -11 15
-25 4 -14 11 -25 16 -25 6 0 10 -5 10 -11 0 -41 336 -523 453 -651 12 -13 37
-42 56 -64 141 -165 352 -360 476 -441 55 -36 111 -73 125 -82 14 -10 32 -20
40 -24 8 -4 42 -23 75 -42 181 -105 543 -262 695 -300 8 -2 47 -13 85 -24 77
-22 70 -20 240 -55 115 -24 142 -28 265 -44 74 -9 681 -9 750 1 30 4 71 9 90
11 19 3 49 7 65 10 17 3 44 8 60 10 35 7 70 14 105 21 14 3 34 7 45 9 11 2 40
10 65 17 25 7 54 14 65 16 11 2 37 10 58 18 20 8 37 12 37 9 0 -4 7 -1 15 6 8
7 15 10 15 7 0 -3 26 5 58 17 l59 23 59 -19 c32 -10 64 -20 69 -22 6 -2 17 -5
25 -8 20 -8 168 -47 200 -54 14 -3 30 -6 35 -8 17 -4 119 -25 145 -30 106 -18
146 -24 230 -34 125 -16 789 -5 820 13 3 1 28 6 55 9 67 9 273 53 360 78 39
10 75 20 80 22 35 8 207 68 280 97 17 7 32 13 35 14 58 18 370 173 447 222 29
18 54 33 57 33 3 0 22 11 43 25 21 14 45 30 53 35 180 117 309 236 544 500 51
58 109 129 185 230 39 52 74 100 78 105 5 6 30 44 58 85 27 41 53 77 57 78 4
2 8 8 8 14 0 5 20 41 45 79 25 38 45 72 45 74 0 3 24 47 53 98 91 159 195 378
271 572 26 66 51 129 56 140 10 21 109 317 115 344 3 9 12 41 21 71 23 80 103
398 109 440 3 19 7 42 10 50 5 18 14 63 20 105 3 17 7 41 10 55 5 26 11 62 20
128 3 20 10 62 15 92 5 30 12 87 16 125 4 39 8 84 10 100 16 131 25 423 13
430 -16 11 -330 5 -574 -10 -167 -11 -240 -17 -380 -31 -16 -1 -57 -5 -90 -8
-33 -3 -69 -7 -80 -10 -18 -3 -97 -13 -170 -21 -16 -2 -43 -6 -60 -9 -16 -3
-48 -7 -70 -11 -23 -3 -52 -8 -65 -10 -14 -3 -45 -8 -70 -11 -25 -3 -54 -8
-65 -11 -11 -2 -33 -6 -50 -8 -16 -3 -52 -9 -80 -15 -27 -5 -61 -12 -75 -14
-14 -3 -36 -8 -50 -11 -14 -3 -45 -10 -70 -15 -84 -18 -92 -19 -108 -24 -9 -3
-30 -7 -45 -10 -16 -3 -45 -10 -65 -17 -20 -7 -46 -13 -57 -14 -11 -1 -47 -9
-80 -19 -138 -42 -161 -48 -175 -51 -8 -2 -71 -22 -140 -45 -69 -23 -131 -42
-137 -43 -7 0 -13 -4 -13 -9 0 -4 -7 -8 -15 -8 -8 0 -86 -30 -173 -66 -86 -36
-163 -68 -169 -71 -7 -3 -13 1 -13 8 0 8 -14 55 -30 104 -17 50 -32 97 -34
105 -7 27 -98 265 -106 275 -4 6 -11 21 -15 35 -8 25 -51 120 -112 247 -19 40
-33 74 -31 75 2 2 -6 17 -18 33 -21 30 -38 69 -32 71 2 1 -4 10 -13 20 -9 11
-38 60 -63 109 -26 50 -51 97 -56 105 -10 16 -195 326 -220 369 -54 92 -370
553 -425 619 -8 9 -41 53 -74 97 -33 44 -64 85 -68 90 -5 6 -43 53 -86 107
-93 116 -117 144 -182 213 -44 47 -52 51 -65 39z m10 -402 c0 -4 10 -18 23
-32 12 -14 33 -41 47 -60 13 -19 27 -37 30 -40 4 -3 57 -72 118 -155 61 -82
115 -154 119 -160 5 -5 31 -44 58 -85 28 -41 53 -77 56 -80 5 -5 116 -171 134
-201 11 -19 148 -239 174 -279 8 -14 21 -34 27 -45 6 -11 41 -74 78 -139 66
-117 199 -375 248 -486 14 -30 35 -77 47 -103 63 -140 197 -507 184 -507 -3 0
-1 -6 5 -13 6 -7 13 -26 15 -42 3 -27 -2 -33 -52 -63 -77 -46 -230 -150 -266
-181 -17 -14 -48 -39 -69 -56 -90 -70 -330 -303 -412 -400 -28 -33 -74 -91
-102 -130 -28 -38 -56 -75 -60 -81 -5 -5 -15 -21 -22 -35 -7 -13 -16 -26 -20
-29 -8 -7 -100 -167 -100 -175 0 -4 -8 -19 -18 -33 -10 -15 -31 -56 -47 -92
-15 -36 -41 -94 -57 -129 -16 -35 -32 -77 -35 -92 -3 -16 -9 -29 -13 -29 -4 0
-11 -15 -15 -32 -4 -18 -9 -35 -9 -38 -53 -162 -54 -163 -71 -90 -10 41 -69
210 -90 255 -15 32 -50 115 -54 127 -7 23 -144 275 -164 302 -4 6 -28 43 -54
81 -143 219 -429 512 -688 705 -55 41 -249 164 -345 220 -8 4 -14 12 -13 18 1
5 4 20 7 33 6 33 54 199 66 229 6 14 12 34 14 45 4 18 34 104 59 165 6 14 11
32 13 41 2 8 10 29 19 45 8 16 15 32 15 36 0 4 12 33 26 65 14 32 40 90 57
128 32 72 176 356 205 405 10 16 33 57 54 92 58 101 229 363 239 366 5 2 9 8
9 13 0 8 134 192 217 298 19 25 190 228 208 247 181 198 205 221 205 196z
m-4205 -2037 c179 -11 286 -20 383 -31 24 -3 62 -7 85 -9 46 -4 124 -14 172
-21 16 -2 53 -7 80 -9 28 -3 61 -7 75 -10 13 -2 42 -7 65 -10 67 -10 96 -15
180 -30 44 -8 96 -17 115 -20 19 -3 42 -8 50 -10 8 -2 31 -7 50 -11 19 -3 40
-7 45 -8 6 -2 28 -6 50 -10 22 -5 121 -28 220 -53 99 -25 185 -46 192 -47 7
-1 16 -5 19 -9 4 -4 15 -7 24 -7 30 0 376 -119 518 -178 134 -56 137 -58 136
-87 -2 -29 -12 -108 -20 -150 -40 -208 -50 -607 -20 -771 2 -11 7 -39 10 -64
10 -66 44 -223 68 -315 11 -44 21 -84 22 -90 1 -5 15 -50 30 -100 66 -213 199
-509 311 -695 53 -89 144 -229 155 -240 15 -15 70 -90 70 -95 0 -4 6 -12 13
-19 6 -8 32 -38 57 -67 172 -206 368 -393 574 -547 39 -29 79 -60 89 -68 9 -8
21 -14 27 -14 5 0 11 -4 15 -9 5 -9 -66 -33 -135 -45 -19 -3 -46 -8 -60 -11
-65 -13 -78 -15 -120 -20 -25 -3 -56 -8 -70 -10 -145 -26 -587 -26 -755 -1
-16 3 -50 8 -75 11 -66 10 -239 44 -285 56 -22 6 -47 13 -55 14 -8 2 -16 4
-17 5 -2 2 -6 3 -10 4 -5 2 -28 8 -53 16 -25 7 -49 14 -55 16 -23 5 -193 67
-230 84 -22 10 -72 32 -112 49 -39 17 -100 46 -135 65 -34 19 -83 44 -108 57
-25 13 -46 27 -48 32 -2 4 -10 7 -18 7 -8 0 -14 5 -14 10 0 6 -5 10 -11 10 -6
0 -63 34 -127 77 -89 59 -149 110 -266 227 -83 83 -167 171 -186 195 -19 25
-52 63 -72 85 -21 23 -38 44 -38 48 0 4 -6 13 -13 20 -7 7 -28 33 -47 58 -19
25 -40 51 -47 58 -7 7 -13 17 -13 22 0 5 -6 15 -13 22 -23 23 -141 209 -219
343 -62 105 -199 378 -238 470 -4 11 -15 36 -23 55 -44 102 -140 358 -152 410
-1 3 -7 18 -13 33 -7 15 -15 40 -18 55 -4 15 -17 61 -30 102 -20 66 -78 292
-100 390 -4 19 -8 37 -9 40 -1 3 -5 25 -10 50 -10 53 -12 59 -15 63 -1 1 -3
13 -4 27 -2 14 -9 57 -16 95 -7 39 -14 82 -16 98 -2 15 -6 39 -9 55 -3 15 -8
51 -11 81 -3 30 -7 62 -9 72 -2 10 -7 49 -10 86 -4 37 -8 79 -10 92 -3 13 -2
27 0 31 4 7 60 6 240 -5z m8679 -16 c-1 -30 -14 -152 -21 -199 -2 -19 -6 -48
-8 -65 -11 -91 -16 -131 -24 -168 -5 -23 -9 -49 -9 -57 0 -8 -3 -26 -6 -40 -3
-14 -15 -74 -27 -135 -12 -60 -25 -115 -30 -121 -5 -6 -6 -13 -4 -16 3 -3 -8
-59 -25 -124 -17 -66 -33 -127 -35 -138 -7 -33 -93 -310 -106 -341 -7 -17 -14
-38 -15 -47 -12 -62 -227 -565 -247 -579 -5 -3 -7 -8 -5 -11 2 -4 -55 -115
-122 -236 -104 -188 -293 -459 -445 -638 -66 -78 -372 -384 -384 -384 -5 0
-16 -6 -23 -13 -45 -43 -316 -203 -469 -276 -157 -74 -356 -154 -417 -167 -13
-2 -42 -11 -65 -19 -104 -34 -350 -86 -472 -99 -146 -16 -234 -21 -380 -20
-214 0 -322 8 -512 39 -56 9 -189 37 -203 42 -8 3 -19 7 -25 8 -76 11 -100 25
-71 42 26 15 94 72 201 166 92 81 360 350 410 412 22 27 51 61 65 76 30 34 30
33 110 139 36 47 67 87 70 90 5 4 24 33 55 81 39 61 76 116 83 124 4 6 11 17
15 25 4 8 18 33 32 55 13 22 35 60 47 85 13 25 25 47 29 50 3 3 12 21 21 40 9
19 35 75 57 123 23 49 41 91 41 94 0 3 6 19 14 36 22 47 72 205 97 299 21 82
25 99 34 148 3 14 7 34 9 45 3 18 10 60 21 145 22 157 22 636 1 747 -3 12 -8
43 -12 70 -3 26 -8 57 -11 68 -2 11 -6 37 -9 57 l-5 37 66 31 c58 27 110 50
125 55 3 1 16 6 30 12 73 31 160 65 172 67 7 1 18 4 23 7 10 6 129 45 265 87
65 21 318 87 362 96 13 2 52 11 88 20 36 8 76 17 90 20 14 3 36 7 50 10 39 9
132 25 165 30 17 2 37 6 45 9 8 3 35 8 60 11 25 4 70 10 100 16 64 11 119 18
175 24 22 3 56 7 75 10 19 3 58 8 85 11 28 3 68 8 90 11 22 2 63 6 90 9 28 3
82 8 120 11 39 4 94 7 122 8 29 1 53 3 53 6 0 3 17 5 38 5 20 0 69 2 107 5 39
3 95 5 125 4 52 0 55 -2 54 -25z m-5866 -701 c186 -117 307 -215 490 -396 153
-152 189 -194 279 -326 34 -50 66 -96 70 -101 23 -30 130 -238 160 -310 14
-33 31 -73 38 -90 53 -118 161 -500 181 -640 2 -16 8 -54 13 -84 6 -29 10 -56
9 -60 0 -3 1 -8 2 -11 4 -9 10 -73 13 -132 1 -32 6 -58 10 -58 5 0 6 -4 2 -9
-11 -19 -17 -131 -20 -396 -2 -148 -4 -271 -4 -273 -2 -5 -192 136 -271 202
-129 107 -268 241 -358 346 -93 109 -115 136 -159 198 -26 37 -50 69 -53 72
-7 7 -109 171 -152 245 -44 77 -132 258 -158 327 -11 29 -25 62 -30 73 -20 45
-101 304 -114 365 -3 14 -10 43 -15 65 -6 22 -12 54 -15 70 -3 17 -8 41 -11
55 -3 14 -8 43 -11 65 -3 22 -7 46 -9 53 -25 74 -25 474 0 599 1 10 6 50 11
88 4 39 9 73 10 78 1 4 2 12 3 17 2 18 20 11 89 -32z m2833 -10 c1 -18 5 -47
12 -93 21 -129 25 -321 13 -550 -7 -132 -9 -153 -21 -215 -3 -19 -8 -47 -10
-62 -5 -39 -53 -223 -77 -293 -35 -107 -101 -270 -110 -273 -4 -2 -8 -8 -8
-14 0 -13 -85 -180 -125 -246 -25 -42 -137 -214 -147 -227 -14 -18 -62 -82
-83 -111 -19 -26 -59 -76 -80 -100 -5 -7 -28 -34 -50 -60 -116 -139 -321 -345
-473 -476 -56 -48 -103 -88 -105 -88 -1 0 -2 89 -3 198 0 108 -3 262 -5 342
-4 129 2 230 17 302 2 13 7 38 10 57 6 35 10 59 19 101 2 14 7 36 9 50 6 29
10 47 25 110 7 25 14 54 16 66 3 12 18 63 34 115 103 332 226 584 398 817 79
107 94 123 238 267 164 162 271 252 428 358 11 6 26 17 35 24 22 16 42 16 43
1z"/>
</g>
</svg>
