<svg xmlns="http://www.w3.org/2000/svg" width="502" height="175.781" viewBox="0 0 502 175.781">
  <g id="logo" transform="translate(0.5 -162)">
    <path id="パス_1" data-name="パス 1" d="M21.792-16.8V83.528H12.476V-16.8Zm38.7,95.885v4.443H21.362V79.085Zm8.743-18.776L60.92,83.528H37.128l5.16-4.443q7.6,0,12.4-2.365A20.337,20.337,0,0,0,62.5,70.055a52.376,52.376,0,0,0,5.3-9.746ZM12.906,73.065V83.528H1.44V82.095H3.3a8.7,8.7,0,0,0,6.378-2.652,9.226,9.226,0,0,0,2.795-6.378Zm0-79.4h-.43a9.226,9.226,0,0,0-2.795-6.378A8.7,8.7,0,0,0,3.3-15.367H1.44V-16.8H12.906Zm8.456,0V-16.8H32.828v1.433H30.965a8.7,8.7,0,0,0-6.378,2.652,9.226,9.226,0,0,0-2.795,6.378Zm74,6.259V52.474a34.549,34.549,0,0,0,3.165,15.169A23.629,23.629,0,0,0,120.687,81.5a27.357,27.357,0,0,0,13.974-3.464,24.322,24.322,0,0,0,9.316-9.615,29.674,29.674,0,0,0,3.344-14.392V-.079h5.614V54.027a32.237,32.237,0,0,1-4,16.3,28.15,28.15,0,0,1-11.287,10.929,35.1,35.1,0,0,1-16.96,3.941,37.153,37.153,0,0,1-17.378-3.882A28.28,28.28,0,0,1,91.723,70.449a31.5,31.5,0,0,1-4.121-16.3V-.079Zm-7.405,0V7.088H87.6a5.531,5.531,0,0,0-1.851-4.3,6.446,6.446,0,0,0-4.479-1.672H79.361V-.079Zm15.646,0V1.116H101.7a6.446,6.446,0,0,0-4.479,1.672,5.531,5.531,0,0,0-1.851,4.3h-.239V-.079Zm44.073,0V7.088h-.358a5.531,5.531,0,0,0-1.851-4.3,6.446,6.446,0,0,0-4.479-1.672H139.08V-.079Zm13.5,0V1.116h-1.911a6.446,6.446,0,0,0-4.479,1.672,5.531,5.531,0,0,0-1.851,4.3H152.7V-.079Zm92.087-1.672.956,8L224.24,73.017l-.9,2.03q-.9,2.03-1.851,4.837a29.515,29.515,0,0,0-1.314,5.315h-1.194l-1.672-7.525Zm-73.454,76.56v8.719H166.551V82.334h1.911a9.026,9.026,0,0,0,5.733-1.971,8.1,8.1,0,0,0,2.986-5.554Zm3.464,1.911v.6a5.32,5.32,0,0,0,1.374,3.523,4.182,4.182,0,0,0,3.285,1.612h1.792v1.075h-7.286V76.72Zm2.867-78.471h1.194L189.722,5.3l-7.047,78.232h-6.45Zm1.194,0,34.4,74.41L218.984,85.2l-33.92-73.574Zm67,0L264.61,83.528h-9.316l-6.569-72.379,4.539-12.9Zm6.689,76.56h2.508a8.543,8.543,0,0,0,3.105,5.554,8.859,8.859,0,0,0,5.614,1.971h1.911v1.194H261.026ZM254.7,76.72h.836v6.808h-7.286V82.453h1.792a4.128,4.128,0,0,0,3.344-1.612,5.459,5.459,0,0,0,1.314-3.523v-.6Zm45.386-76.8V83.528h-7.763V-.079Zm-7.405,74.888v8.719h-9.555V82.334h1.553a7.246,7.246,0,0,0,5.315-2.21,7.688,7.688,0,0,0,2.329-5.315Zm0-66.169h-.358a7.688,7.688,0,0,0-2.329-5.315,7.246,7.246,0,0,0-5.315-2.21h-1.553V-.079h9.555Zm7.047,66.169h.358a7.688,7.688,0,0,0,2.329,5.315,7.246,7.246,0,0,0,5.315,2.21h1.553v1.194h-9.555Zm0-66.169V-.079h9.555V1.116h-1.553a7.246,7.246,0,0,0-5.315,2.21,7.688,7.688,0,0,0-2.329,5.315ZM331.375-1.87l69.393,74.052L401.844,85.2,332.45,11.268Zm.239,76.918v8.48H321.7V82.334h2.269a7.341,7.341,0,0,0,7.286-7.286Zm5.136,0a7.341,7.341,0,0,0,7.286,7.286h2.269v1.194h-9.913v-8.48ZM331.375-1.87l5.255,6.689.119,78.71h-5.494V13.059a88.55,88.55,0,0,0-.537-10.511l-.537-4.419ZM401.844-.079V69.912q0,3.822.239,7.345t.537,5.733l.3,2.21h-1.075l-5.375-6.33V-.079Zm9.555,0V1.116h-2.15a7.11,7.11,0,0,0-5.136,2.09,7.372,7.372,0,0,0-2.269,5.2h-.358V-.079Zm-24.6,0h9.913V8.4h-.239a7.484,7.484,0,0,0-2.21-5.2,7.053,7.053,0,0,0-5.2-2.09h-2.269ZM457.86-1.751l35.354,84.562H483.062L455.471,9.6Zm-25.679,76.56a6.077,6.077,0,0,0-.239,4.061,4.947,4.947,0,0,0,1.971,2.568,5.083,5.083,0,0,0,2.807.9h1.075v1.194H413.788V82.334h1.075a11.134,11.134,0,0,0,5.673-1.732,12.75,12.75,0,0,0,4.837-5.793ZM457.86-1.751l1.075,8.361L428.956,83.17H421.79l30.576-72.618.657-1.493q.657-1.493,1.553-3.643t1.553-4.18a11.006,11.006,0,0,0,.657-2.986ZM474.7,50.921V54.5H437.317V50.921Zm5.375,23.888h9.794a11.977,11.977,0,0,0,4.778,5.793,11.446,11.446,0,0,0,5.733,1.732h.955v1.194H474.462V82.334h1.075a5.378,5.378,0,0,0,4.061-1.971Q481.39,78.392,480.076,74.809Z" transform="translate(-1.44 178.8)" fill="#2c3e57"/>
    <g id="グループ_9" data-name="グループ 9">
      <g id="グループ_1" data-name="グループ 1" transform="translate(70.252 62.455)">
        <path id="パス_4" data-name="パス 4" d="M364.519-587.957l.65.745c.5.578,12.339,14.273,11.5,25.362,0,10.986-11.221,18.417-11.7,18.728l-.454.3-.491-.227A23.217,23.217,0,0,1,351.8-561.831c.051-14.654,11.492-25.033,11.979-25.468Zm-.163,42.875c2.059-1.491,10.356-8.048,10.356-16.843.675-8.908-7.878-20.154-10.356-23.207-2.5,2.532-10.558,11.6-10.6,23.211A21.347,21.347,0,0,0,364.356-545.082Z" transform="translate(-185.255 809)" fill="#9c8b58"/>
        <path id="パス_5" data-name="パス 5" d="M12.717,0l.65.745c.5.578,12.339,14.273,11.5,25.362,0,10.986-11.221,18.417-11.7,18.728l-.454.3-.491-.227A23.217,23.217,0,0,1,0,26.126C.051,11.473,11.492,1.093,11.979.659Zm-.163,42.875c2.059-1.491,10.356-8.048,10.356-16.843.675-8.908-7.878-20.154-10.356-23.207C10.056,5.357,2,14.427,1.952,26.036A21.347,21.347,0,0,0,12.554,42.875Z" transform="translate(137.748 245.715) rotate(-49)" fill="#9c8b58"/>
        <path id="パス_6" data-name="パス 6" d="M12.721,45.13l-.738-.659C11.5,44.037.056,33.657,0,19.1A23.276,23.276,0,0,1,12.224.227L12.715,0l.453.3c.478.311,11.7,7.742,11.7,18.8.84,11.015-10.994,24.71-11.5,25.288ZM12.558,2.255A21.422,21.422,0,0,0,1.952,19.191C2,30.738,10.059,39.78,12.557,42.305c2.476-3.052,11.031-14.3,10.359-23.134C22.914,10.312,14.617,3.747,12.558,2.255Z" transform="translate(186.776 275.326) rotate(-131)" fill="#9c8b58"/>
      </g>
      <path id="線_1" data-name="線 1" d="M193,1H0A1,1,0,0,1-1,0,1,1,0,0,1,0-1H193a1,1,0,0,1,1,1A1,1,0,0,1,193,1Z" transform="translate(0.5 310.998)" fill="#9c8b58"/>
      <path id="線_2" data-name="線 2" d="M193,1H0A1,1,0,0,1-1,0,1,1,0,0,1,0-1H193a1,1,0,0,1,1,1A1,1,0,0,1,193,1Z" transform="translate(307.5 310.998)" fill="#9c8b58"/>
    </g>
    <path id="パス_10" data-name="パス 10" d="M21.792-16.8V83.528H12.476V-16.8Zm38.7,95.885v4.443H21.362V79.085Zm8.743-18.776L60.92,83.528H37.128l5.16-4.443q7.6,0,12.4-2.365A20.337,20.337,0,0,0,62.5,70.055a52.376,52.376,0,0,0,5.3-9.746ZM12.906,73.065V83.528H1.44V82.095H3.3a8.7,8.7,0,0,0,6.378-2.652,9.226,9.226,0,0,0,2.795-6.378Zm0-79.4h-.43a9.226,9.226,0,0,0-2.795-6.378A8.7,8.7,0,0,0,3.3-15.367H1.44V-16.8H12.906Zm8.456,0V-16.8H32.828v1.433H30.965a8.7,8.7,0,0,0-6.378,2.652,9.226,9.226,0,0,0-2.795,6.378Zm74,6.259V52.474a34.549,34.549,0,0,0,3.165,15.169A23.629,23.629,0,0,0,120.687,81.5a27.357,27.357,0,0,0,13.974-3.464,24.322,24.322,0,0,0,9.316-9.615,29.674,29.674,0,0,0,3.344-14.392V-.079h5.614V54.027a32.237,32.237,0,0,1-4,16.3,28.15,28.15,0,0,1-11.287,10.929,35.1,35.1,0,0,1-16.96,3.941,37.153,37.153,0,0,1-17.378-3.882A28.28,28.28,0,0,1,91.723,70.449a31.5,31.5,0,0,1-4.121-16.3V-.079Zm-7.405,0V7.088H87.6a5.531,5.531,0,0,0-1.851-4.3,6.446,6.446,0,0,0-4.479-1.672H79.361V-.079Zm15.646,0V1.116H101.7a6.446,6.446,0,0,0-4.479,1.672,5.531,5.531,0,0,0-1.851,4.3h-.239V-.079Zm44.073,0V7.088h-.358a5.531,5.531,0,0,0-1.851-4.3,6.446,6.446,0,0,0-4.479-1.672H139.08V-.079Zm13.5,0V1.116h-1.911a6.446,6.446,0,0,0-4.479,1.672,5.531,5.531,0,0,0-1.851,4.3H152.7V-.079Zm92.087-1.672.956,8L224.24,73.017l-.9,2.03q-.9,2.03-1.851,4.837a29.515,29.515,0,0,0-1.314,5.315h-1.194l-1.672-7.525Zm-73.454,76.56v8.719H166.551V82.334h1.911a9.026,9.026,0,0,0,5.733-1.971,8.1,8.1,0,0,0,2.986-5.554Zm3.464,1.911v.6a5.32,5.32,0,0,0,1.374,3.523,4.182,4.182,0,0,0,3.285,1.612h1.792v1.075h-7.286V76.72Zm2.867-78.471h1.194L189.722,5.3l-7.047,78.232h-6.45Zm1.194,0,34.4,74.41L218.984,85.2l-33.92-73.574Zm67,0L264.61,83.528h-9.316l-6.569-72.379,4.539-12.9Zm6.689,76.56h2.508a8.543,8.543,0,0,0,3.105,5.554,8.859,8.859,0,0,0,5.614,1.971h1.911v1.194H261.026ZM254.7,76.72h.836v6.808h-7.286V82.453h1.792a4.128,4.128,0,0,0,3.344-1.612,5.459,5.459,0,0,0,1.314-3.523v-.6Zm45.386-76.8V83.528h-7.763V-.079Zm-7.405,74.888v8.719h-9.555V82.334h1.553a7.246,7.246,0,0,0,5.315-2.21,7.688,7.688,0,0,0,2.329-5.315Zm0-66.169h-.358a7.688,7.688,0,0,0-2.329-5.315,7.246,7.246,0,0,0-5.315-2.21h-1.553V-.079h9.555Zm7.047,66.169h.358a7.688,7.688,0,0,0,2.329,5.315,7.246,7.246,0,0,0,5.315,2.21h1.553v1.194h-9.555Zm0-66.169V-.079h9.555V1.116h-1.553a7.246,7.246,0,0,0-5.315,2.21,7.688,7.688,0,0,0-2.329,5.315ZM331.375-1.87l69.393,74.052L401.844,85.2,332.45,11.268Zm.239,76.918v8.48H321.7V82.334h2.269a7.341,7.341,0,0,0,7.286-7.286Zm5.136,0a7.341,7.341,0,0,0,7.286,7.286h2.269v1.194h-9.913v-8.48ZM331.375-1.87l5.255,6.689.119,78.71h-5.494V13.059a88.55,88.55,0,0,0-.537-10.511l-.537-4.419ZM401.844-.079V69.912q0,3.822.239,7.345t.537,5.733l.3,2.21h-1.075l-5.375-6.33V-.079Zm9.555,0V1.116h-2.15a7.11,7.11,0,0,0-5.136,2.09,7.372,7.372,0,0,0-2.269,5.2h-.358V-.079Zm-24.6,0h9.913V8.4h-.239a7.484,7.484,0,0,0-2.21-5.2,7.053,7.053,0,0,0-5.2-2.09h-2.269ZM457.86-1.751l35.354,84.562H483.062L455.471,9.6Zm-25.679,76.56a6.077,6.077,0,0,0-.239,4.061,4.947,4.947,0,0,0,1.971,2.568,5.083,5.083,0,0,0,2.807.9h1.075v1.194H413.788V82.334h1.075a11.134,11.134,0,0,0,5.673-1.732,12.75,12.75,0,0,0,4.837-5.793ZM457.86-1.751l1.075,8.361L428.956,83.17H421.79l30.576-72.618.657-1.493q.657-1.493,1.553-3.643t1.553-4.18a11.006,11.006,0,0,0,.657-2.986ZM474.7,50.921V54.5H437.317V50.921Zm5.375,23.888h9.794a11.977,11.977,0,0,0,4.778,5.793,11.446,11.446,0,0,0,5.733,1.732h.955v1.194H474.462V82.334h1.075a5.378,5.378,0,0,0,4.061-1.971Q481.39,78.392,480.076,74.809Z" transform="translate(-1.44 178.8)" fill="#2c3e57"/>
    <g id="グループ_26" data-name="グループ 26">
      <g id="グループ_1-2" data-name="グループ 1" transform="translate(70.252 62.455)">
        <path id="パス_4-2" data-name="パス 4" d="M364.519-587.957l.65.745c.5.578,12.339,14.273,11.5,25.362,0,10.986-11.221,18.417-11.7,18.728l-.454.3-.491-.227A23.217,23.217,0,0,1,351.8-561.831c.051-14.654,11.492-25.033,11.979-25.468Zm-.163,42.875c2.059-1.491,10.356-8.048,10.356-16.843.675-8.908-7.878-20.154-10.356-23.207-2.5,2.532-10.558,11.6-10.6,23.211A21.347,21.347,0,0,0,364.356-545.082Z" transform="translate(-185.255 809)" fill="#9c8b58"/>
        <path id="パス_5-2" data-name="パス 5" d="M12.717,0l.65.745c.5.578,12.339,14.273,11.5,25.362,0,10.986-11.221,18.417-11.7,18.728l-.454.3-.491-.227A23.217,23.217,0,0,1,0,26.126C.051,11.473,11.492,1.093,11.979.659Zm-.163,42.875c2.059-1.491,10.356-8.048,10.356-16.843.675-8.908-7.878-20.154-10.356-23.207C10.056,5.357,2,14.427,1.952,26.036A21.347,21.347,0,0,0,12.554,42.875Z" transform="translate(137.748 245.715) rotate(-49)" fill="#9c8b58"/>
        <path id="パス_6-2" data-name="パス 6" d="M12.721,45.13l-.738-.659C11.5,44.037.056,33.657,0,19.1A23.276,23.276,0,0,1,12.224.227L12.715,0l.453.3c.478.311,11.7,7.742,11.7,18.8.84,11.015-10.994,24.71-11.5,25.288ZM12.558,2.255A21.422,21.422,0,0,0,1.952,19.191C2,30.738,10.059,39.78,12.557,42.305c2.476-3.052,11.031-14.3,10.359-23.134C22.914,10.312,14.617,3.747,12.558,2.255Z" transform="translate(186.776 275.326) rotate(-131)" fill="#9c8b58"/>
      </g>
      <path id="線_1-2" data-name="線 1" d="M193,1H0A1,1,0,0,1-1,0,1,1,0,0,1,0-1H193a1,1,0,0,1,1,1A1,1,0,0,1,193,1Z" transform="translate(0.5 310.998)" fill="#9c8b58"/>
      <path id="線_2-2" data-name="線 2" d="M193,1H0A1,1,0,0,1-1,0,1,1,0,0,1,0-1H193a1,1,0,0,1,1,1A1,1,0,0,1,193,1Z" transform="translate(307.5 310.998)" fill="#9c8b58"/>
    </g>
  </g>
</svg>
