<svg xmlns="http://www.w3.org/2000/svg" width="243.836" height="26.367" viewBox="0 0 243.836 26.367">
  <g id="グループ_10" data-name="グループ 10" transform="translate(0.5 -283.498)">
    <g id="グループ_1" data-name="グループ 1" transform="translate(100.774 283.498)">
      <path id="パス_4" data-name="パス 4" d="M357.979-587.957l.316.362c.245.281,5.993,6.933,5.584,12.319,0,5.336-5.451,8.946-5.683,9.1l-.22.143-.238-.11a11.277,11.277,0,0,1-5.935-9.12c.025-7.118,5.582-12.159,5.818-12.37Zm-.079,20.826c1-.724,5.03-3.909,5.03-8.181.328-4.327-3.827-9.789-5.03-11.272-1.213,1.23-5.128,5.635-5.15,11.274A10.369,10.369,0,0,0,357.9-567.132Z" transform="translate(-337.813 587.957)" fill="#9c8b58"/>
      <path id="パス_5" data-name="パス 5" d="M6.177,0l.316.362c.245.281,5.993,6.933,5.584,12.319,0,5.336-5.451,8.946-5.683,9.1l-.22.143-.238-.11A11.277,11.277,0,0,1,0,12.69C.025,5.573,5.582.531,5.818.32ZM6.1,20.826c1-.724,5.03-3.909,5.03-8.181C11.456,8.318,7.3,2.855,6.1,1.372,4.885,2.6.97,7.008.948,12.647A10.369,10.369,0,0,0,6.1,20.826Z" transform="translate(0 11.984) rotate(-49)" fill="#9c8b58"/>
      <path id="パス_6" data-name="パス 6" d="M6.179,21.921l-.358-.32C5.584,21.39.027,16.348,0,9.278A11.306,11.306,0,0,1,5.937.11L6.176,0,6.4.143C6.628.294,12.08,3.9,12.08,9.276c.408,5.35-5.34,12-5.585,12.283ZM6.1,1.1A10.405,10.405,0,0,0,.948,9.321c.023,5.609,3.938,10,5.151,11.227,1.2-1.482,5.358-6.944,5.032-11.237C11.13,5.009,7.1,1.82,6.1,1.1Z" transform="translate(23.814 26.367) rotate(-131)" fill="#9c8b58"/>
    </g>
    <path id="線_1" data-name="線 1" d="M93.231-.029H-.514A.486.486,0,0,1-1-.514.486.486,0,0,1-.514-1H93.231a.486.486,0,0,1,.486.486A.486.486,0,0,1,93.231-.029Z" transform="translate(0.5 297.369)" fill="#9c8b58"/>
    <path id="線_2" data-name="線 2" d="M93.231-.029H-.514A.486.486,0,0,1-1-.514.486.486,0,0,1-.514-1H93.231a.486.486,0,0,1,.486.486A.486.486,0,0,1,93.231-.029Z" transform="translate(149.619 297.369)" fill="#9c8b58"/>
  </g>
</svg>
